<svg xmlns="http://www.w3.org/2000/svg" xmlns:xlink="http://www.w3.org/1999/xlink" version="1.1" x="0px" y="0px" viewBox="0 0 100 100" enable-background="new 0 0 100 100" xml:space="preserve">
  <path fill="#E60F2D" d="M15.122,37.041l1.014-1.554c0,0,3.071,1.844,3.986,2.567c1.028,0.813,3.783,3.581,3.783,3.581l3.108-4.672  c2.297,2.578,4.246,2.799,6.08,4.807c2.837,3.108,2.782,7.061,4.256,9.255c0.77,1.146,3.715,3.175,3.715,3.175  S40.997,51.213,40.305,50c-1.892-3.31-4.791-5.915-5.66-7.666c-0.721-1.453-0.948-1.798-2.634-4.619l1.554-0.946  c0,0-1.544-1.982-2.905-5.202c-1.729-4.09-2.635-9.39-2.635-9.39s4.791,1.083,7.229,2.702c2.581,1.715,5.675,3.31,5.675,3.31  c0.608-4.053-0.261-5.057-0.208-7.754c0.052-2.642,0.749-4.3,0.749-4.3l3.58,1.448c0,0,0.458-3.474,1.419-5.945  c0.96-2.471,4.121-6.833,4.121-6.833s0.41,3.842,0.946,6.699c0.535,2.856,1.582,4.487,1.582,4.487l2.403-1.785  c-0.005,0.157,0.505,1.58,1.71,4.29c1.128,2.534-0.105,5.866,1.06,6.857c0.623,0.529,2.43-1.62,5.54-3.175  c3.513-1.757,7.634-4.807,7.634-4.807s-0.338,6.777-1.554,11.022c-1.216,4.246-5.066,6.283-4.256,7.702  c0.285,0.499,1.384,0.203,1.384,0.203s-1.938,5.602-2.938,7.295c-0.721,1.22-2.907,3.146-3.581,4.392  c-0.631,1.167-1.419,5.742-1.419,5.742s1.683-1.723,3.783-3.726c1.689-1.611,3.04-6.542,5.205-8.86  c2.666-2.853,7.563-6.475,7.563-6.475s0.903,5.768,2.297,5.347c1.002-0.302-0.108-0.595,3.242-2.645  c3.352-2.051,4.729-2.297,4.729-2.297s0.543,2.438,1.081,2.162c1.554-0.8,9.765-1.935,9.765-1.935s-1.475,3.505-2.826,6.157  c-1.351,2.652-3.696,6.317-3.696,6.317l3.243,1.756c0,0-1.65,1.502-4.392,3.051c-3.157,1.784-3.713,1.671-3.783,2.973  c-0.114,2.113,7.229,3.705,7.229,3.705s-5.742,3.736-8.715,4.807c-2.585,0.931-7.441,0.73-9.863,1.014  c-2.421,0.282-3.445,1.824-3.445,2.962s7.275,2.124,10.742,3.388c3.466,1.265,11.619,5.202,11.619,5.202s-7.363,3.515-10.741,3.572  c-3.378,0.057-5.878-1.478-6.485-0.532c-0.305,0.474,0.676,2.151,0.676,2.151s-2.702,0.551-6.216,0.551  c-3.513,0-5.381-2.396-6.891-1.486c-0.811,0.489-0.27,3.772-0.27,3.772s-4.392-0.182-6.823-2.286s-4.764-6.08-4.764-6.08  l2.939,18.905h-1.892l-2.702-21.066c0,0-1.216,4.458-7.431,5.934c-4.548,1.08-6.147,2.037-6.147,2.037s0.158-3.154-0.743-3.715  c-1.388-0.862-3.217,0.609-6.08,1.543c-2.863,0.933-5.694,0.096-5.694,0.096s1.414-1.047,0.9-1.454  c-0.494-0.392-3.62,0.459-6.42,0.412c-3.067-0.05-8.242-1.216-8.242-1.216s4.804-3.695,7.716-5.936  c2.912-2.239,10.929-4.738,10.929-4.738s-0.405-1.408-3.107-1.486s-8.309-0.992-12.092-2.286s-5.877-5.145-5.877-5.145  c0.132-0.061,0.842-0.896,2.595-1.767c1.482-0.737,3.4-0.609,3.941-1.496c0.405-0.665-2.745-2.881-3.698-3.888  c-1.237-1.307-3.75-5.667-3.75-5.667s2.552,0.339,2.939-0.289c0.835-1.357-0.479-1.088-1.959-4.921  c-0.568-1.469-0.957-3.624-1.418-5.067c-0.743-2.322-2.837-4.053-2.837-4.053s2.775-0.271,4.869,1.215  C9.631,33.329,15.122,37.041,15.122,37.041z M13.096,41.094c0.608,1.037,1.148,1.959,1.148,1.959l-1.959,0.676l2.77-0.135  l3.378,3.918c0,0-1.588,1.047-2.702,0.946c-1.115-0.101-3.551-0.089-3.551-0.089s2.368,0.9,3.686,0.833  c1.317-0.067,3.378-1.013,3.378-1.013l3.513,3.446c0,0-2.026,1.621-3.04,1.959c-1.013,0.338-3.107,0.338-3.107,0.338  s1.756,0.506,3.04,0.202s4.121-1.892,4.121-1.892l7.026,6.215c0,0-5.202,1.622-8.377,1.791c-3.175,0.169-6.654-0.811-6.654-0.811  s3.209,1.621,6.924,1.452c3.716-0.169,9.12-1.892,9.12-1.892l4.932,4.627c0,0-1.148,0.643-3.885,0.71  c2.263,1.047,4.654-0.354,4.654-0.354s1.368,1.137,3.419,2.583c2.051,1.446,6.417,4.526,6.417,4.526s-4.661,1.182-6.823,1.148  c-2.162-0.034-2.973-0.474-5.202-0.541c-2.229-0.067-7.093,0.743-7.093,0.743s-1.486-1.419-2.432-1.554s-3.175,0.54-3.175,0.54  s1.385-0.202,2.634,0.136c1.25,0.338,1.959,1.419,1.959,1.419l-3.986,1.08c0,0-2.263,0.203-3.783,0.474  c-1.52,0.27-3.817,1.554-3.817,1.554s2.282-0.623,3.701-0.894c1.419-0.27,3.798-0.289,3.798-0.289s0.09,0.991-0.923,1.6  c1.892-0.236,1.768-1.769,1.768-1.769s2.658-0.871,3.918-1.081s2.837-0.473,2.837-0.473s-0.16,0.276-0.595,1.432  c-0.435,1.154-1.443,1.529-1.443,1.529s1.563,0.123,2.132-0.958c0.568-1.082,1.122-2.138,1.122-2.138s1.553-0.321,3.243-0.203  s3.25,0.296,5.202,0.136c1.952-0.161,4.932-0.406,4.932-0.406s-0.169,0.305-0.608,1.284c-0.439,0.979-2.229,2.837-2.229,2.837  s2.781-1.651,3.31-2.499s1.351-2.162,1.351-2.162l1.014-0.067c0,0,1.193,0.38,1.452,0.688c0.198,0.233,0.331,1.181,0.331,1.181  l1.313,2.085l-0.473-2.86l1.228-0.688c0,0,4.154,1.385,5.742,1.688c1.588,0.305,3.851,0.203,3.851,0.203s0.203,2.499,2.5,3.311  c-1.521-2.196-1.486-3.514-1.486-3.514l9.255,0.811c0,0,1.486,1.96,2.905,1.892c-1.352-1.148-1.689-1.756-1.689-1.756  s7.19-0.008,8.749,0.102c1.558,0.108,4.324,0.875,4.324,0.875s-2.271-1.353-4.46-1.483s-6.924,0.169-6.924,0.169  s0.337-1.081,1.351-1.621c1.014-0.541,3.581-0.676,3.581-0.676s-3.209-0.405-4.188,0.202c-0.98,0.608-1.824,1.622-1.824,1.622  l-7.566-0.676c0,0-0.34-2.146,1.351-3.716c-2.128,0.574-2.026,3.378-2.026,3.378s-3.445,0.236-6.215,0s-6.485-1.621-6.485-1.621  l8.85-7.364c0,0,2.026,1.217,3.175,0.676c-1.756-0.607-2.297-1.283-2.297-1.283l4.797-4.323c0,0,2.745,1.207,6.282,1.554  c4.493,0.438,8.242-0.338,8.242-0.338s-4.425,0-7.6-0.338c-3.176-0.338-6.175-1.691-6.175-1.691l6.884-5.064  c0,0,4.661,1.689,6.182,0.878c-3.276-0.473-5.642-1.485-5.642-1.485l1.892-1.824c0,0,3.243,0.506,5.742,0.473  c2.5-0.033,4.403-1.193,4.403-1.193s-2.563,0.45-4.622,0.484c-2.061,0.033-5.084-0.406-5.084-0.406s4.223-4.121,5.979-5.911  c1.757-1.79,8.141-5.877,8.141-5.877s-6.958,3.614-8.884,5.54c-1.925,1.926-8.039,8.04-8.039,8.04l-4.796,3.107  c0,0-0.324-4.258-0.203-6.316c0.135-2.297,0.529-4.51,3.175-9.424c0,0-3.276,4.425-3.715,9.188c-0.309,3.347,0,7.296,0,7.296  l-4.045,3.21c0,0-0.342-1.422-0.342-3.448c0-2.027,0.4-5.065,0.4-5.065s-1.047,2.703-1.081,4.966  c-0.033,2.263,0.271,4.661,0.271,4.661L50.859,71.224l0.067-14.39c0,0,2.567-0.979,2.364-2.229  c-1.537,1.267-2.634,1.081-2.634,1.081v-6.215l0.912-5.742l5.235-5.607c0,0,6.013,0.405,6.621-1.283  c-3.276,1.013-5.945,0.405-5.945,0.405s4.02-5.691,5.54-7.769c2.297-3.142,5.404-5.945,5.404-5.945s-3.074,1.925-6.215,5.674  c-1.553,1.854-6.216,8.647-6.216,8.647l-4.729,4.796l-0.136-8.31l-0.675-8.985c0,0,1.452-1.452,2.297-2.635  c0.845-1.182,1.013-2.5,1.013-2.5s-0.598,1.109-1.52,2.229c-1.032,1.254-1.925,1.858-1.925,1.858s-0.96-3.112-1.081-4.459  c-0.121-1.346-0.067-5.235-0.067-5.235s-0.643,3.99-0.473,5.404s0.878,5.067,0.878,5.067s-1.418-0.676-2.635-1.554  c-1.216-0.878-3.243-3.513-3.243-3.513s1.385,3.108,2.77,4.188C47.853,25.286,50,26.367,50,26.367v7.228  c0,0-1.708,0.068-4.612-2.229c1.52,3.04,4.83,3.243,4.83,3.243l0.237,9.052l-0.743,4.054c0,0-4.304-3.596-6.553-6.485  c-2.249-2.89-9.728-12.498-9.728-12.498l8.06,11.965c0,0-0.607,0.672-3.884-0.308c3.142,1.925,4.606,1.38,4.606,1.38l7.472,7.427  l-0.311,7.638c0,0-1.418-0.473-2.601-1.098c-1.102-0.583-2.297-1.655-2.297-1.655s1.137,1.652,2.128,2.28  c0.991,0.628,2.77,1.757,2.77,1.757l0.338,13.443c0,0-8.985-6.283-11.822-8.377c-2.837-2.095-6.553-5.945-6.553-5.945  s0.271-5.843,0-7.836c-0.27-1.993-2.281-6.058-2.281-6.058s1.403,4.2,1.673,5.99c0.271,1.79,0,7.634,0,7.634l-3.378-2.973  l-4.053-3.581c0,0,0.396-1.22,0.396-2.74c0-1.521-0.729-3.055-0.729-3.055c0.507,2.702,0.189,2.044,0.189,2.84  c0,1.148-0.599,2.313-0.599,2.313l-3.107-3.005c0,0,0.067-1.994,0-3.649c-0.067-1.655-0.945-2.583-0.945-2.583  s0.405,1.029,0.473,2.313c0.067,1.284-0.406,3.378-0.406,3.378s-4.108-4.433-4.796-5.202c-0.688-0.769-4.674-5.104-4.674-5.104  S12.488,40.057,13.096,41.094z"/>
</svg>
